<?xml version="1.0" standalone="no"?>
<!DOCTYPE svg PUBLIC "-//W3C//DTD SVG 20010904//EN"
 "http://www.w3.org/TR/2001/REC-SVG-20010904/DTD/svg10.dtd">
<svg version="1.0" xmlns="http://www.w3.org/2000/svg"
 width="544.000000pt" height="459.000000pt" viewBox="0 0 544.000000 459.000000"
 preserveAspectRatio="xMidYMid meet">

<g transform="translate(0.000000,459.000000) scale(0.100000,-0.100000)"
fill="#000000" stroke="none">
<path d="M2723 3936 c-29 -7 -73 -24 -98 -37 -30 -16 -278 -257 -754 -731
-742 -740 -751 -750 -766 -848 -4 -27 -3 -31 4 -15 8 15 9 10 5 -20 -6 -39 -5
-40 25 -42 28 -2 31 1 37 35 4 20 20 66 36 102 27 60 69 105 618 653 325 324
590 595 590 603 0 9 -5 12 -12 8 -6 -4 -8 -3 -5 4 4 5 15 8 25 6 10 -3 29 7
47 26 17 17 25 30 18 28 -6 -2 -11 0 -12 5 -3 22 0 27 12 21 6 -4 9 -3 4 1 -9
11 52 75 71 75 8 0 12 -6 8 -15 -7 -20 -2 -19 42 9 65 43 133 59 225 54 154
-8 117 23 873 -733 391 -391 682 -690 697 -716 26 -45 41 -93 52 -161 4 -29
11 -38 25 -38 10 0 22 10 26 23 7 20 9 19 15 -13 4 -20 5 1 4 51 -2 73 -7 95
-31 140 -22 42 -182 207 -732 754 -387 384 -720 710 -740 724 -46 31 -152 61
-212 60 -25 0 -68 -6 -97 -13z m577 -321 c19 -19 32 -35 29 -35 -3 0 -20 16
-39 35 -19 19 -32 35 -29 35 3 0 20 -16 39 -35z m-896 7 c-5 -4 -12 -11 -15
-15 -3 -5 -9 -2 -12 5 -3 9 3 14 15 15 11 1 16 -1 12 -5z m-94 -45 c0 -1 -24
-25 -52 -52 l-53 -50 50 53 c46 48 55 57 55 49z m1071 -44 c13 -16 12 -17 -3
-4 -17 13 -22 21 -14 21 2 0 10 -8 17 -17z m664 -663 c21 -22 37 -40 34 -40
-3 0 -23 18 -44 40 -21 22 -37 40 -34 40 3 0 23 -18 44 -40z"/>
<path d="M2758 3453 c7 -3 16 -2 19 1 4 3 -2 6 -13 5 -11 0 -14 -3 -6 -6z"/>
<path d="M2858 3453 c6 -2 18 -2 25 0 6 3 1 5 -13 5 -14 0 -19 -2 -12 -5z"/>
<path d="M2960 3430 c8 -5 20 -10 25 -10 6 0 3 5 -5 10 -8 5 -19 10 -25 10 -5
0 -3 -5 5 -10z"/>
<path d="M2589 3383 c-13 -16 -12 -17 4 -4 16 13 21 21 13 21 -2 0 -10 -8 -17
-17z"/>
<path d="M3065 3370 c10 -11 20 -20 23 -20 3 0 -3 9 -13 20 -10 11 -20 20 -23
20 -3 0 3 -9 13 -20z"/>
<path d="M2534 3338 l-29 -33 33 29 c17 17 32 31 32 33 0 8 -8 1 -36 -29z"/>
<path d="M3120 3315 c13 -14 26 -25 28 -25 3 0 -5 11 -18 25 -13 14 -26 25
-28 25 -3 0 5 -11 18 -25z"/>
<path d="M2758 3283 c-84 -28 -169 -123 -152 -168 6 -14 9 -13 23 8 23 34 83
84 115 97 34 13 117 13 150 0 14 -5 44 -26 67 -47 24 -21 39 -32 35 -25 -4 6
-5 12 -2 12 13 0 30 -51 42 -130 l13 -85 -4 75 c-8 131 -18 162 -72 211 -64
60 -140 78 -215 52z"/>
<path d="M3222 3100 c0 -14 2 -19 5 -12 2 6 2 18 0 25 -3 6 -5 1 -5 -13z"/>
<path d="M2596 3080 c8 -43 14 -51 14 -19 0 13 -5 31 -10 39 -7 11 -8 5 -4
-20z"/>
<path d="M2411 3084 c0 -11 3 -14 6 -6 3 7 2 16 -1 19 -3 4 -6 -2 -5 -13z"/>
<path d="M3233 2995 c0 -33 2 -45 4 -27 2 18 2 45 0 60 -2 15 -4 0 -4 -33z"/>
<path d="M2403 3000 c0 -25 2 -35 4 -22 2 12 2 32 0 45 -2 12 -4 2 -4 -23z"/>
<path d="M2414 2900 c6 -50 36 -153 44 -145 8 7 33 -46 26 -56 -3 -5 2 -12 10
-15 9 -3 13 -10 10 -15 -3 -5 0 -9 6 -9 6 0 9 -4 6 -8 -6 -10 67 -98 122 -149
132 -119 261 -107 405 40 38 38 66 71 63 74 -3 3 2 12 12 20 11 10 12 12 2 8
-9 -4 -8 -1 3 8 10 9 18 18 18 21 -3 21 0 26 11 20 7 -4 8 -3 4 4 -4 7 -2 12
4 12 6 0 8 5 5 10 -3 6 -2 10 3 10 13 0 44 89 36 102 -4 5 -16 -15 -29 -46
-32 -79 -80 -153 -142 -217 -29 -30 -51 -58 -48 -61 3 -3 -3 -11 -12 -19 -16
-13 -17 -12 -4 4 7 9 9 17 3 17 -15 0 -33 -26 -24 -35 4 -5 2 -5 -5 -1 -7 4
-27 -1 -45 -10 -81 -42 -176 -7 -288 106 -82 82 -145 191 -181 311 -18 60 -19
61 -15 19z m646 -333 c0 -2 -15 -16 -32 -33 l-33 -29 29 33 c28 30 36 37 36
29z"/>
<path d="M3210 2911 c0 -11 5 -23 10 -26 6 -3 10 3 10 14 0 11 -4 23 -10 26
-5 3 -10 -3 -10 -14z"/>
<path d="M3200 2860 c0 -5 5 -10 10 -10 6 0 10 5 10 10 0 6 -4 10 -10 10 -5 0
-10 -4 -10 -10z"/>
<path d="M1908 2623 c7 -3 16 -2 19 1 4 3 -2 6 -13 5 -11 0 -14 -3 -6 -6z"/>
<path d="M3708 2623 c6 -2 18 -2 25 0 6 3 1 5 -13 5 -14 0 -19 -2 -12 -5z"/>
<path d="M3880 2577 c0 -3 12 -12 26 -22 15 -9 23 -12 20 -6 -7 11 -46 35 -46
28z"/>
<path d="M1699 2533 c-13 -16 -12 -17 4 -4 9 7 17 15 17 17 0 8 -8 3 -21 -13z"/>
<path d="M3983 2488 c25 -31 48 -66 52 -78 4 -12 9 -19 12 -16 9 8 -43 89 -78
121 -24 23 -21 17 14 -27z"/>
<path d="M1639 2473 c-13 -16 -12 -17 4 -4 9 7 17 15 17 17 0 8 -8 3 -21 -13z"/>
<path d="M2381 2434 c30 -32 68 -78 84 -102 15 -23 30 -40 33 -38 10 11 -90
138 -137 173 -28 21 -23 13 20 -33z"/>
<path d="M3244 2428 c-43 -47 -69 -78 -62 -78 2 0 27 27 56 60 61 69 65 80 6
18z"/>
<path d="M1873 2447 c-18 -7 -49 -27 -69 -45 -51 -47 -92 -144 -64 -154 6 -2
12 -26 14 -54 4 -63 13 -80 70 -132 52 -48 83 -63 141 -68 40 -4 40 -4 -13 15
-105 37 -171 119 -172 214 -1 150 130 241 286 198 54 -14 150 -78 195 -128 45
-50 111 -161 104 -174 -4 -5 -1 -9 5 -9 7 0 10 -7 7 -15 -4 -8 -2 -17 2 -20 5
-3 7 -15 4 -28 -5 -18 -3 -20 8 -9 11 10 9 23 -9 80 -13 39 -18 68 -12 70 6 2
10 13 10 25 0 20 0 21 -16 1 -14 -17 -15 -17 -10 -1 3 10 2 16 -3 12 -5 -3
-19 10 -31 29 -34 56 -130 137 -200 170 -52 24 -80 31 -140 33 -41 1 -90 -3
-107 -10z"/>
<path d="M3574 2445 c-73 -23 -126 -56 -189 -118 -34 -34 -67 -70 -72 -80 -9
-18 -12 -17 -64 2 -32 13 -55 17 -57 11 -2 -6 -8 -8 -12 -5 -11 7 -45 -43 -36
-52 3 -3 1 -12 -4 -18 -8 -9 -4 -11 15 -7 14 2 22 8 20 12 -3 5 0 12 6 16 8 4
9 3 5 -4 -7 -12 4 -15 47 -15 9 0 17 -6 17 -14 0 -8 4 -12 9 -9 5 4 3 -16 -4
-44 -7 -27 -15 -71 -18 -97 -2 -27 -2 -40 0 -30 2 9 8 17 13 17 5 0 7 9 5 20
-2 11 0 22 6 25 5 4 9 17 9 29 0 36 75 176 120 223 40 43 154 113 183 113 8 0
17 4 19 8 7 18 137 -5 177 -31 39 -26 91 -111 91 -149 0 -21 16 -24 23 -5 3 6
6 -6 7 -28 l2 -40 9 45 c13 60 6 92 -32 146 -57 83 -179 116 -295 79z"/>
<path d="M1610 2430 c-6 -11 -8 -20 -6 -20 3 0 10 9 16 20 6 11 8 20 6 20 -3
0 -10 -9 -16 -20z"/>
<path d="M4681 2373 c-1 -12 -6 -25 -13 -29 -8 -5 -9 -2 -5 10 4 11 3 15 -4
11 -6 -4 -8 -20 -4 -38 4 -23 3 -28 -4 -18 -7 12 -12 12 -24 3 -12 -10 -18
-10 -30 3 -9 8 -18 11 -22 6 -3 -5 -10 -58 -15 -118 -12 -126 -35 -181 -111
-267 -54 -60 -56 -63 -34 -63 8 0 12 4 9 9 -8 12 10 10 26 -4 12 -11 12 -10 0
5 -11 16 -11 20 5 35 17 15 17 15 6 0 -7 -10 -8 -19 -2 -22 5 -4 13 3 16 15 7
21 7 21 21 -2 7 -13 18 -33 23 -44 6 -12 10 -15 10 -6 1 8 4 11 8 8 3 -4 12
-2 20 4 10 9 13 8 13 0 0 -20 -1291 -1323 -1380 -1394 -19 -15 -41 -25 -48
-22 -7 2 -11 1 -7 -4 6 -10 -39 -45 -76 -60 -19 -7 -30 -4 -49 12 -17 14 -19
18 -7 14 12 -5 7 5 -15 29 -18 19 -32 40 -30 46 1 6 -9 8 -25 4 -119 -22 -200
-13 -300 33 -35 17 -89 54 -121 83 -100 93 -96 90 -111 67 -9 -16 -10 -19 0
-13 9 5 10 2 6 -9 -3 -10 -2 -17 3 -17 6 0 10 -6 10 -14 0 -8 -8 -13 -17 -12
-11 0 -17 -5 -15 -13 2 -8 -3 -11 -12 -8 -11 4 -13 1 -9 -10 5 -12 -1 -11 -24
6 -49 37 -1260 1254 -1288 1295 -15 22 -27 48 -28 60 0 12 -4 26 -8 31 -4 6 0
16 8 24 14 12 15 12 11 0 -7 -21 23 -38 55 -32 18 4 27 1 27 -8 0 -8 6 -5 15
7 13 16 14 16 9 2 -3 -10 -1 -18 4 -18 18 0 23 17 9 28 -7 6 -19 27 -27 46 -7
19 -17 33 -21 31 -4 -3 -7 1 -6 8 0 6 -1 21 -2 32 l-2 20 -10 -20 c-8 -17 -8
-15 -4 7 8 40 -6 143 -16 126 -7 -10 -11 -11 -17 0 -5 7 -18 14 -30 17 -12 2
-26 6 -31 10 -5 3 -13 -5 -17 -17 -7 -22 -7 -22 -15 -3 -6 17 -8 17 -8 3 -1
-10 -7 -18 -15 -18 -11 0 -14 -14 -13 -59 1 -33 4 -58 7 -56 4 2 7 -12 7 -32
1 -20 7 -39 15 -44 7 -5 10 -9 6 -9 -4 0 8 -30 27 -68 31 -60 105 -138 742
-779 508 -511 726 -723 771 -752 144 -91 327 -120 481 -75 78 22 197 86 250
134 25 22 41 40 36 40 -4 0 7 12 26 28 19 15 156 149 304 299 149 149 441 444
650 655 362 364 383 387 420 463 39 79 40 82 43 210 2 94 -1 142 -12 175 -9
28 -14 37 -15 23z m-97 -471 c3 -5 -1 -9 -9 -9 -8 0 -12 4 -9 9 3 4 7 8 9 8 2
0 6 -4 9 -8z m-1751 -1569 c-7 -2 -21 -2 -30 0 -10 3 -4 5 12 5 17 0 24 -2 18
-5z"/>
<path d="M3154 2313 c-30 -42 -36 -53 -27 -53 4 0 18 18 31 40 26 46 24 52 -4
13z"/>
<path d="M941 2294 c0 -11 3 -14 6 -6 3 7 2 16 -1 19 -3 4 -6 -2 -5 -13z"/>
<path d="M1562 2280 c0 -19 2 -27 5 -17 2 9 2 25 0 35 -3 9 -5 1 -5 -18z"/>
<path d="M4023 2283 c-3 -7 -8 -11 -12 -9 -4 3 -13 1 -21 -4 -10 -6 -21 -3
-32 7 -15 13 -18 14 -19 2 -1 -8 -3 -21 -4 -29 -4 -44 -18 -98 -31 -121 -12
-24 -12 -28 2 -33 8 -3 12 -10 9 -16 -3 -5 1 -10 9 -10 9 0 16 -5 16 -11 0 -6
14 1 31 15 32 27 49 27 49 -2 -1 -18 -29 -74 -30 -58 0 5 -7 3 -15 -4 -8 -7
-12 -16 -9 -21 3 -5 0 -9 -6 -9 -6 0 -9 -4 -6 -8 7 -12 -40 -54 -96 -87 -52
-29 -62 -40 -24 -25 13 5 27 6 30 3 3 -3 8 2 12 11 3 9 11 13 18 9 6 -3 8 -3
4 1 -8 9 71 82 84 78 5 -1 7 2 4 7 -3 5 2 15 11 22 35 30 65 121 71 214 4 89
4 91 -18 91 -12 0 -24 -6 -27 -13z"/>
<path d="M4081 2254 c0 -11 3 -14 6 -6 3 7 2 16 -1 19 -3 4 -6 -2 -5 -13z"/>
<path d="M1574 2203 c-6 -29 -7 -50 -2 -47 4 3 8 -6 8 -21 0 -14 11 -48 25
-75 14 -28 23 -50 20 -50 -11 0 48 -63 104 -113 40 -34 125 -73 211 -95 49
-12 112 -16 263 -17 108 0 197 -3 197 -7 0 -5 5 -8 10 -8 6 0 10 8 10 18 0 16
-17 17 -212 17 -170 0 -226 4 -275 17 -121 34 -220 96 -273 173 -24 35 -28 48
-21 67 6 13 10 18 10 11 1 -6 9 -10 19 -9 9 2 21 -2 25 -8 5 -6 7 5 5 26 -2
20 0 34 4 32 4 -3 8 -14 8 -24 0 -10 4 -21 8 -24 9 -5 8 131 -1 140 -3 4 -20
1 -37 -5 -33 -11 -70 -1 -70 20 0 6 -4 8 -9 4 -5 -3 -11 3 -13 12 -2 10 -8 -6
-14 -34z m54 -148 c-3 -3 -9 2 -12 12 -6 14 -5 15 5 6 7 -7 10 -15 7 -18z"/>
<path d="M2395 2220 c3 -5 8 -10 11 -10 2 0 4 5 4 10 0 6 -5 10 -11 10 -5 0
-7 -4 -4 -10z"/>
<path d="M1112 2170 c0 -14 2 -19 5 -12 2 6 2 18 0 25 -3 6 -5 1 -5 -13z"/>
<path d="M3854 2152 c-6 -4 -14 -17 -18 -29 -6 -18 -4 -20 13 -16 11 3 22 11
24 17 7 18 -6 36 -19 28z"/>
<path d="M1120 2132 c0 -2 13 -32 30 -66 28 -58 149 -196 172 -196 6 0 7 -7 4
-16 -3 -8 -2 -13 3 -10 5 3 20 -3 32 -15 22 -18 22 -19 3 -10 -24 12 264 -279
505 -509 172 -165 167 -160 156 -141 -6 11 -4 13 11 7 10 -4 -5 18 -35 48 -30
30 -59 52 -65 49 -6 -3 -8 -2 -3 2 7 9 -45 64 -448 472 -213 215 -244 251
-275 315 -31 64 -39 73 -63 73 -15 1 -27 -1 -27 -3z"/>
<path d="M4432 2068 c-16 -35 -27 -66 -25 -70 9 -16 50 12 70 48 29 49 30 84
4 84 -14 0 -28 -18 -49 -62z"/>
<path d="M1740 2090 c0 -5 4 -10 10 -10 5 0 7 -6 4 -14 -3 -8 -1 -17 5 -21 7
-4 8 0 4 11 -5 13 -3 15 8 9 8 -5 5 1 -5 13 -21 24 -26 27 -26 12z"/>
<path d="M3845 2090 c-4 -6 -11 -8 -16 -4 -5 3 -23 -6 -40 -21 -37 -31 -77
-52 -133 -71 l-41 -14 45 6 c60 7 117 34 165 77 22 20 37 37 33 37 -4 0 -10
-5 -13 -10z"/>
<path d="M3861 2066 c-17 -18 -20 -26 -10 -31 7 -5 10 -4 5 3 -3 6 -2 13 3 16
5 3 12 -1 15 -10 3 -8 11 -12 17 -8 6 3 16 0 21 -7 8 -12 9 -11 5 1 -2 8 -12
14 -21 13 -14 -1 -16 4 -12 23 8 29 7 29 -23 0z"/>
<path d="M3056 2041 c-4 -24 -5 -46 -2 -48 7 -7 19 63 14 79 -3 7 -8 -7 -12
-31z"/>
<path d="M2581 2024 c0 -11 3 -14 6 -6 3 7 2 16 -1 19 -3 4 -6 -2 -5 -13z"/>
<path d="M2203 1973 c15 -2 39 -2 55 0 15 2 2 4 -28 4 -30 0 -43 -2 -27 -4z"/>
<path d="M2328 1973 c7 -3 16 -2 19 1 4 3 -2 6 -13 5 -11 0 -14 -3 -6 -6z"/>
<path d="M3353 1973 c20 -2 54 -2 75 0 20 2 3 4 -38 4 -41 0 -58 -2 -37 -4z"/>
<path d="M2768 1923 c-1 -16 -1 -40 0 -55 0 -16 -4 -28 -10 -28 -7 0 -6 -6 2
-15 11 -13 0 -15 -89 -15 l-101 0 2 -162 2 -163 6 160 6 160 4 -170 4 -170 3
162 3 161 108 4 c59 1 158 1 220 -1 l112 -3 0 -162 c0 -163 -10 -228 -43 -293
-23 -44 -21 -65 3 -28 23 36 49 134 51 190 l2 40 7 -40 7 -40 2 37 c0 20 -3
39 -7 42 -5 3 -5 31 -1 63 9 74 11 177 3 197 -5 13 -26 16 -128 16 -66 0 -116
4 -109 8 17 11 12 52 -7 52 -11 0 -12 2 -2 8 7 5 10 16 6 25 -3 10 -1 24 6 32
11 13 7 15 -24 15 -32 0 -36 -3 -38 -27z"/>
<path d="M4481 1884 c0 -11 3 -14 6 -6 3 7 2 16 -1 19 -3 4 -6 -2 -5 -13z"/>
<path d="M4486 1852 c-3 -5 1 -9 9 -9 8 0 12 4 9 9 -3 4 -7 8 -9 8 -2 0 -6 -4
-9 -8z"/>
<path d="M3720 1826 c0 -2 7 -6 15 -10 8 -3 15 -1 15 4 0 6 -7 10 -15 10 -8 0
-15 -2 -15 -4z"/>
<path d="M4066 1661 c-104 -107 -165 -175 -160 -182 4 -8 3 -9 -4 -5 -12 7
-156 -133 -147 -143 17 -16 43 -3 100 51 36 33 62 65 58 71 -3 5 -2 7 4 4 5
-3 92 78 194 180 101 103 177 181 167 174 -9 -6 -18 -8 -20 -4 -3 4 -3 2 -2
-4 5 -21 -6 -15 -14 7 -7 18 -29 -1 -176 -149z m169 120 c3 -5 2 -12 -3 -15
-5 -3 -9 1 -9 9 0 17 3 19 12 6z m-335 -345 c0 -2 -8 -10 -17 -17 -16 -13 -17
-12 -4 4 13 16 21 21 21 13z"/>
<path d="M3222 1755 c1 -41 2 -43 5 -15 3 19 10 38 16 42 6 4 70 4 142 1 129
-6 285 3 285 15 0 4 -101 7 -225 7 l-225 0 2 -50z"/>
<path d="M2414 1640 c0 -69 1 -97 3 -62 2 34 2 90 0 125 -2 34 -3 6 -3 -63z"/>
<path d="M3224 1585 c0 -66 1 -92 3 -57 2 34 2 88 0 120 -2 31 -3 3 -3 -63z"/>
<path d="M2601 1438 c-1 -34 35 -132 54 -148 20 -16 19 -5 -2 26 -9 14 -24 53
-34 87 -12 41 -18 53 -18 35z"/>
<path d="M2410 1428 c0 -19 2 -20 10 -8 13 19 13 30 0 30 -5 0 -10 -10 -10
-22z"/>
<path d="M3212 1430 c0 -14 2 -19 5 -12 2 6 2 18 0 25 -3 6 -5 1 -5 -13z"/>
<path d="M2581 1424 c0 -11 3 -14 6 -6 3 7 2 16 -1 19 -3 4 -6 -2 -5 -13z"/>
<path d="M2431 1374 c0 -11 3 -14 6 -6 3 7 2 16 -1 19 -3 4 -6 -2 -5 -13z"/>
<path d="M3192 1338 c-7 -28 -11 -53 -8 -55 2 -2 9 19 16 47 7 28 10 53 8 55
-3 3 -10 -18 -16 -47z"/>
<path d="M2437 1336 c-4 -9 -2 -16 4 -16 6 0 9 -7 6 -15 -4 -8 -2 -17 4 -20 5
-4 7 -11 4 -16 -4 -5 -1 -9 4 -9 6 0 10 -3 9 -7 -4 -17 33 -86 57 -105 13 -10
24 -22 22 -27 -4 -12 65 -66 114 -90 26 -12 75 -26 110 -32 53 -8 72 -7 128
10 36 11 86 33 111 49 25 16 48 29 53 30 4 1 7 5 8 10 1 4 17 23 37 42 20 19
36 38 34 43 -1 4 3 7 10 7 6 0 9 3 5 6 -3 4 0 19 8 35 28 53 15 44 -15 -11
-30 -56 -112 -140 -163 -166 -15 -8 -38 -12 -50 -9 -15 4 -18 3 -9 -3 11 -7 9
-10 -7 -15 -12 -3 -24 -1 -27 4 -3 5 1 9 8 10 7 0 2 5 -12 10 -20 8 -22 12
-10 19 8 5 10 10 4 10 -7 0 -14 9 -17 20 -3 13 0 20 9 20 16 0 38 36 26 44 -4
2 -14 1 -22 -5 -24 -14 -76 -10 -130 10 -27 11 -50 16 -50 13 0 -4 -7 3 -15
15 -15 22 -52 22 -38 0 3 -6 1 -7 -5 -3 -7 4 -21 1 -33 -8 l-21 -14 20 -20
c17 -17 18 -21 5 -26 -23 -9 -30 -7 -13 4 10 7 11 10 2 10 -7 0 -15 -7 -19
-16 -12 -31 -83 70 -118 169 -15 40 -24 54 -28 43z"/>
<path d="M2613 1263 c1 -19 6 -28 11 -23 6 6 5 18 -2 32 -10 22 -10 21 -9 -9z"/>
<path d="M3690 1258 c0 -4 -6 -8 -14 -8 -20 0 -41 -29 -29 -41 13 -13 43 -1
43 17 0 8 4 14 9 14 5 0 11 6 14 13 3 8 -1 14 -9 14 -8 0 -14 -4 -14 -9z"/>
<path d="M2706 1242 c-15 -24 68 -65 114 -56 39 8 30 20 -20 28 -23 4 -52 13
-65 22 -13 8 -26 11 -29 6z"/>
<path d="M2075 1133 c2 -10 4 -22 4 -28 1 -5 6 -3 11 5 5 8 10 10 10 4 0 -7 8
-15 17 -19 11 -4 7 5 -11 24 -35 36 -35 36 -31 14z"/>
<path d="M3561 1128 c-6 -13 -10 -17 -10 -9 -1 10 -8 8 -26 -9 -13 -12 -22
-27 -19 -32 3 -5 1 -7 -4 -6 -10 3 -123 -104 -307 -292 -55 -57 -115 -114
-132 -127 -18 -14 -31 -29 -28 -33 10 -17 52 5 115 59 104 90 440 431 440 446
0 25 -20 27 -29 3z"/>
<path d="M2095 1081 c-3 -5 -2 -12 3 -15 5 -3 9 1 9 9 0 17 -3 19 -12 6z"/>
<path d="M2146 1062 c-3 -5 1 -15 8 -21 11 -10 14 -9 12 3 -3 21 -13 29 -20
18z"/>
<path d="M2154 1013 c22 -23 44 -39 50 -36 6 3 7 2 3 -2 -10 -11 113 -136 126
-128 6 3 7 2 4 -4 -4 -6 7 -22 23 -37 17 -14 30 -24 30 -22 0 2 30 -28 68 -67
97 -104 107 -111 118 -82 4 10 -13 32 -47 63 -29 26 -62 56 -74 67 -11 11 -24
18 -30 17 -5 -2 -7 0 -2 4 10 10 -94 115 -106 107 -6 -3 -7 -2 -4 4 3 5 -26
41 -65 79 -38 38 -65 59 -59 48 18 -36 -1 -36 -38 -2 -34 31 -34 31 3 -9z
m130 -95 c-3 -5 7 -20 23 -34 15 -13 23 -24 17 -24 -10 0 -64 51 -64 61 0 3 7
6 15 6 8 0 12 -4 9 -9z"/>
<path d="M2660 588 c1 -26 26 -44 77 -56 63 -14 117 -6 109 15 -4 8 -6 17 -6
19 0 2 -12 4 -27 4 -16 0 -44 4 -63 9 -80 21 -90 22 -90 9z"/>
</g>
</svg>
